<?xml version="1.0" encoding="utf-8"?>
<!-- Generator: Adobe Illustrator 24.2.3, SVG Export Plug-In . SVG Version: 6.00 Build 0)  -->
<svg version="1.1" id="Capa_1" xmlns="http://www.w3.org/2000/svg" xmlns:xlink="http://www.w3.org/1999/xlink" x="0px" y="0px"
	 viewBox="0 0 1591.69 251.79" style="enable-background:new 0 0 1591.69 251.79;" xml:space="preserve">
<g>
	<g>
		<path d="M145.68,231.41c-17.26,0-33.35-2.49-48.28-7.46c-14.92-4.97-27.87-12.18-38.83-21.63c-10.96-9.44-19.55-20.96-25.74-34.57
			c-6.2-13.6-9.29-29.13-9.29-46.6c0-15.63,3.15-30.1,9.44-43.4c6.29-13.3,15.18-24.87,26.65-34.72c11.47-9.85,24.98-17.51,40.51-23
			s32.44-8.22,50.71-8.22c14.21,0,27.46,1.67,39.75,5.03c12.28,3.35,23.25,7.67,32.89,12.94c9.64,5.28,17.41,11.07,23.3,17.36
			L218.48,78.2c-6.09-5.07-12.69-9.44-19.8-13.1c-7.11-3.66-14.67-6.6-22.69-8.83c-8.02-2.23-16.5-3.35-25.43-3.35
			c-11.17,0-21.58,1.73-31.22,5.18c-9.65,3.46-18.07,8.22-25.28,14.32c-7.21,6.09-12.84,13.3-16.9,21.63
			c-4.06,8.33-6.09,17.36-6.09,27.11c0,11.37,2.13,21.43,6.4,30.15c4.26,8.73,10.1,15.89,17.51,21.47
			c7.41,5.59,15.84,9.85,25.28,12.79c9.44,2.95,19.44,4.42,30,4.42c9.54,0,18.53-1.01,26.96-3.05c8.42-2.03,15.73-4.97,21.93-8.83
			c6.19-3.86,11.01-8.42,14.47-13.71c3.45-5.28,5.07-10.86,4.87-16.75v-6.09l6.09,10.05H147.2v-37.77h116.35
			c0.2,2.85,0.4,5.79,0.61,8.83c0.2,3.05,0.35,5.84,0.46,8.38c0.1,2.54,0.15,4.32,0.15,5.33c0,15.43-2.89,28.99-8.68,40.66
			c-5.79,11.68-13.96,21.58-24.52,29.7c-10.56,8.12-23.15,14.27-37.77,18.43C179.19,229.32,163.14,231.41,145.68,231.41z"/>
	</g>
</g>
<g>
	<g>
		<path d="M381.06,235.67c-20.51,0-38.48-4.21-53.91-12.64c-15.43-8.42-27.52-19.9-36.25-34.42c-8.73-14.52-13.1-31.01-13.1-49.49
			V20.33h45.99v116.96c0,10.96,2.54,20.71,7.61,29.24c5.07,8.53,11.93,15.28,20.56,20.25c8.63,4.98,18.32,7.46,29.09,7.46
			c11.17,0,21.17-2.48,30-7.46c8.83-4.97,15.79-11.73,20.86-20.25c5.07-8.53,7.61-18.28,7.61-29.24V20.33h44.47v118.79
			c0,18.48-4.37,34.98-13.1,49.49c-8.73,14.52-20.82,25.99-36.25,34.42C419.23,231.46,401.36,235.67,381.06,235.67z"/>
	</g>
</g>
<g>
	<g>
		<path d="M495.37,232.15V18.95h41.73l90.16,122.44h-24.98l90.46-122.44h41.12v213.21h-44.77v-74.93c0-17.46,0.4-33.55,1.22-48.28
			c0.81-14.72,2.44-29.59,4.87-44.62l4.87,14.92l-75.54,98.08h-20.1l-75.54-98.08l5.18-14.92c2.23,14.62,3.81,29.29,4.72,44.01
			c0.91,14.72,1.37,31.02,1.37,48.89v74.93H495.37z"/>
	</g>
</g>
<g>
	<g>
		<path d="M745.08,233.06l97.16-213.21h44.16l96.86,213.21h-47.82l-57.57-126.4c-1.63-4.06-3.35-8.22-5.18-12.49
			c-1.83-4.26-3.61-8.58-5.33-12.94c-1.73-4.36-3.35-8.73-4.87-13.1c-1.52-4.36-2.89-8.58-4.11-12.64l10.05-0.3
			c-1.22,4.47-2.64,8.94-4.27,13.4c-1.63,4.47-3.3,8.83-5.03,13.1c-1.73,4.26-3.5,8.53-5.33,12.79c-1.83,4.26-3.65,8.63-5.48,13.1
			l-57.57,125.49H745.08z M789.25,190.11l15.53-36.85h116.65l9.75,36.85H789.25z"/>
	</g>
</g>
<g>
	<g>
		<path d="M1117.74,225.65c-12.28,0-23.72-1.86-34.32-5.59c-10.6-3.73-19.85-9.13-27.74-16.23c-7.9-7.09-14.07-15.53-18.53-25.33
			c-4.46-9.79-6.69-20.54-6.69-32.24c0-11.4,2.26-21.89,6.8-31.47c4.53-9.57,10.78-17.94,18.75-25.11
			c7.97-7.16,17.25-12.64,27.85-16.45c10.6-3.8,22.04-5.7,34.32-5.7c8.92,0,17.54,1.1,25.88,3.29c8.33,2.19,15.97,5.12,22.92,8.77
			c6.94,3.66,12.83,7.82,17.65,12.5l-19.52,25.22c-4.24-3.65-8.74-6.91-13.49-9.76c-4.75-2.85-10.02-5.12-15.79-6.8
			c-5.78-1.68-12.17-2.52-19.19-2.52c-6.73,0-13.2,1.1-19.41,3.29c-6.22,2.19-11.81,5.37-16.78,9.54
			c-4.97,4.17-8.96,9.25-11.95,15.24c-3,6-4.5,12.72-4.5,20.18c0,7.75,1.54,14.66,4.61,20.72c3.07,6.07,7.24,11.18,12.5,15.35
			c5.26,4.17,11.29,7.31,18.09,9.43c6.8,2.12,14,3.18,21.6,3.18c7.02,0,13.41-0.99,19.19-2.96c5.77-1.97,11-4.39,15.68-7.24
			c4.68-2.85,8.77-5.81,12.28-8.88l15.79,25.88c-3.95,3.66-9.32,7.31-16.12,10.96c-6.8,3.66-14.51,6.69-23.14,9.1
			C1135.86,224.45,1126.95,225.65,1117.74,225.65z"/>
	</g>
</g>
<g>
	<g>
		<path d="M1248.14,229.5c-12.28,0-23.1-2.59-32.46-7.79c-9.36-5.19-16.63-12.32-21.82-21.38c-5.19-9.06-7.79-19.44-7.79-31.14
			c0-11.69,2.7-22.07,8.11-31.14c5.41-9.06,12.83-16.19,22.26-21.38c9.43-5.19,20.29-7.78,32.57-7.78c7.46,0,14.29,0.91,20.5,2.74
			c6.21,1.83,11.62,4.24,16.23,7.24c4.61,3,8.33,6.29,11.18,9.87c2.85,3.58,4.64,7.13,5.37,10.64l-7.68,0.22V111.3h30.92v116.01
			h-31.36v-30.7l6.58,1.54c-0.59,3.66-2.38,7.31-5.37,10.96c-3,3.66-6.84,7.02-11.51,10.09c-4.68,3.07-10.09,5.56-16.23,7.46
			S1255.01,229.5,1248.14,229.5z M1256.26,202.53c7.75,0,14.55-1.42,20.39-4.28c5.85-2.85,10.38-6.8,13.6-11.84
			c3.21-5.04,4.82-10.78,4.82-17.21c0-6.58-1.61-12.35-4.82-17.32c-3.22-4.97-7.75-8.88-13.6-11.73
			c-5.85-2.85-12.65-4.28-20.39-4.28c-7.75,0-14.55,1.42-20.39,4.28c-5.85,2.85-10.46,6.76-13.82,11.73
			c-3.36,4.97-5.04,10.75-5.04,17.32c0,6.43,1.68,12.17,5.04,17.21c3.36,5.04,7.97,8.99,13.82,11.84
			C1241.71,201.1,1248.51,202.53,1256.26,202.53z"/>
	</g>
</g>
<g>
	<g>
		<path d="M1341.2,226.67V110.66h29.83l1.1,41.01l-8.11-3.07c2.19-7.46,5.77-14.25,10.75-20.39c4.97-6.14,10.78-11,17.43-14.58
			c6.65-3.58,13.63-5.37,20.94-5.37c4.53,0,8.81,0.44,12.83,1.32c4.02,0.88,7.42,2.12,10.2,3.73l-8.33,33.33
			c-2.63-1.61-6.07-2.92-10.31-3.95c-4.24-1.02-8.33-1.54-12.28-1.54c-4.97,0-9.54,0.8-13.71,2.41c-4.17,1.61-7.68,3.84-10.53,6.69
			s-5.01,6.07-6.47,9.65c-1.46,3.58-2.19,7.2-2.19,10.86v55.92H1341.2z"/>
	</g>
</g>
<g>
	<g>
		<path d="M1499.68,225.64c-13.16,0-25.08-1.79-35.75-5.37c-10.67-3.58-19.37-8.95-26.1-16.12l19.3-17.54
			c5.26,4.97,11.62,8.81,19.08,11.51c7.46,2.71,15.57,4.06,24.34,4.06c2.92,0,5.85-0.18,8.77-0.55c2.92-0.36,5.55-1.02,7.89-1.97
			c2.34-0.95,4.24-2.12,5.7-3.51c1.46-1.39,2.19-3.18,2.19-5.37c0-3.36-2.49-5.85-7.46-7.46c-2.93-1.17-6.54-2.19-10.86-3.07
			c-4.31-0.88-8.96-1.75-13.93-2.63c-8.77-1.61-16.48-3.4-23.14-5.37c-6.65-1.97-12.25-4.57-16.78-7.79
			c-3.66-2.92-6.51-6.32-8.55-10.2c-2.05-3.87-3.07-8.52-3.07-13.93c0-5.55,1.46-10.49,4.39-14.8c2.92-4.31,6.94-8,12.06-11.07
			c5.12-3.07,11.07-5.41,17.87-7.02c6.8-1.61,13.93-2.41,21.38-2.41c7.02,0,14.07,0.66,21.16,1.97c7.09,1.32,13.85,3.29,20.29,5.92
			c6.43,2.63,11.99,6,16.67,10.09l-16.01,19.3c-3.66-2.63-7.86-5.04-12.61-7.24c-4.75-2.19-9.83-3.91-15.24-5.15
			c-5.41-1.24-10.6-1.86-15.57-1.86c-3.07,0-6,0.19-8.77,0.55c-2.78,0.37-5.34,0.99-7.67,1.86c-2.34,0.88-4.21,1.97-5.59,3.29
			c-1.39,1.32-2.08,2.93-2.08,4.82c0,1.32,0.4,2.63,1.21,3.95c0.8,1.32,1.94,2.41,3.4,3.29c2.63,1.46,6.32,2.78,11.07,3.95
			c4.75,1.17,10.27,2.34,16.56,3.51c9.35,1.61,17.51,3.55,24.45,5.81c6.94,2.27,12.68,5.01,17.21,8.22c3.51,2.63,6.1,5.63,7.79,8.99
			c1.68,3.37,2.52,7.17,2.52,11.4c0,7.75-2.45,14.47-7.35,20.18c-4.9,5.7-11.51,10.09-19.85,13.16S1510.64,225.64,1499.68,225.64z"
			/>
	</g>
</g>
</svg>
